<svg height="480pt" viewBox="0 0 480 480" width="480pt" xmlns="http://www.w3.org/2000/svg" fill="#5DEEFF"><path d="m188.71875 24.382812c.894531-.015624 1.78125-.148437 2.640625-.398437 4.191406-1.46875 6.40625-6.042969 4.960937-10.242187-1.0625-3.074219-3.882812-5.203126-7.132812-5.378907s-6.28125 1.636719-7.667969 4.578125c-1.179687 2.476563-1.007812 5.382813.453125 7.703125 1.460938 2.320313 4.007813 3.730469 6.746094 3.738281zm0 0"/><path d="m308.878906 33.023438c1.210938.636718 2.554688.964843 3.921875.960937 2.890625.007813 5.554688-1.554687 6.960938-4.082031 2.15625-3.84375.796875-8.710938-3.042969-10.878906-3.875-2.046876-8.675781-.671876-10.878906 3.121093-1.070313 1.839844-1.332032 4.039063-.71875 6.078125.574218 2.03125 1.925781 3.753906 3.757812 4.800782zm0 0"/><path d="m220.800781 17.183594c10.082031-1.273438 20.265625-1.542969 30.398438-.800782 10.125.699219 20.152343 2.441407 29.921875 5.199219.707031.1875 1.429687.292969 2.160156.320313 4.082031.117187 7.597656-2.863282 8.152344-6.910156.554687-4.046876-2.027344-7.863282-5.992188-8.847657-21.660156-5.933593-44.269531-7.589843-66.5625-4.882812-2.121094.257812-4.050781 1.351562-5.359375 3.042969-1.28125 1.6875-1.855469 3.8125-1.597656 5.917968.539063 4.367188 4.507813 7.476563 8.878906 6.960938zm0 0"/><path d="m464 71.984375h-100.144531c-.3125-.945313-.535157-1.953125-.894531-2.882813-4.324219-10.933593-10.800782-20.890624-19.039063-29.277343-3.082031-3.105469-8.070313-3.210938-11.28125-.242188-1.542969 1.457031-2.4375 3.472657-2.480469 5.589844-.046875 2.121094.761719 4.171875 2.238282 5.691406 5.941406 6.171875 10.785156 13.316407 14.3125 21.121094h-213.414063c2.433594-5.488281 5.546875-10.648437 9.261719-15.359375 6.214844-7.609375 13.585937-14.195312 21.839844-19.523438 3.714843-2.40625 4.769531-7.367187 2.363281-11.078124-2.410157-3.710938-7.371094-4.769532-11.082031-2.359376-9.570313 6.191407-18.125 13.828126-25.359376 22.640626-.058593.117187-.140624.226562-.242187.320312-6.078125 7.582031-10.796875 16.160156-13.941406 25.359375h-100.136719c-8.835938 0-16 7.164063-16 16v272c0 8.835937 7.164062 16 16 16h199.199219l-4.078125 40.800781c-32.074219 1.820313-91.121094 8.238282-91.121094 31.199219 0 31.101563 107.71875 32 120 32s120-.898437 120-32c0-22.960937-59.046875-29.378906-91.078125-31.199219l-4.121094-40.800781h199.199219c8.835938 0 16-7.164063 16-16v-272c0-8.835937-7.164062-16-16-16zm-120.679688 376c-6.984374 6.230469-44.152343 16-103.320312 16s-96.335938-9.753906-103.320312-16c5.03125-4.328125 27.160156-12.3125 72.800781-15.074219l-1.441407 14.273438c-.226562 2.25.511719 4.488281 2.027344 6.167968 1.515625 1.675782 3.671875 2.632813 5.933594 2.632813h48c2.261719 0 4.417969-.957031 5.933594-2.632813 1.515625-1.679687 2.253906-3.917968 2.027344-6.167968l-1.425782-14.257813c45.625 2.761719 67.753906 10.746094 72.785156 15.058594zm-88.121093-8h-30.320313l6.402344-64h17.519531zm208.800781-80h-448v-272h448zm0 0"/><path d="m320 175.984375h24v-16h-48v-16h16v-16h-40v-24h-16v32c0 4.417969 3.582031 8 8 8h16v24c0 4.417969 3.582031 8 8 8h16v48c0 4.417969 3.582031 8 8 8h56v-16h-48zm0 0"/><path d="m336 303.984375h24v-16h-48v-16h16v-16h-40v-16h-16v24c0 4.417969 3.582031 8 8 8h16v24c0 4.417969 3.582031 8 8 8h16v32c0 4.417969 3.582031 8 8 8h56v-16h-48zm0 0"/><path d="m82.34375 213.640625 11.3125-11.3125-42.34375-42.34375 42.34375-42.34375-11.3125-11.3125-48 48c-3.121094 3.125-3.121094 8.1875 0 11.3125zm0 0"/><path d="m141.65625 213.640625 48-48c3.121094-3.125 3.121094-8.1875 0-11.3125l-48-48-11.3125 11.3125 42.34375 42.34375-42.34375 42.34375zm0 0"/><path d="m32 231.984375h80v16h-80zm0 0"/><path d="m32 255.984375h40v16h-40zm0 0"/><path d="m32 279.984375h88v16h-88zm0 0"/><path d="m128 279.984375h40v16h-40zm0 0"/><path d="m80 255.984375h40v16h-40zm0 0"/><path d="m32 303.984375h88v16h-88zm0 0"/><path d="m128 303.984375h64v16h-64zm0 0"/><path d="m32 327.984375h88v16h-88zm0 0"/><path d="m128 327.984375h64v16h-64zm0 0"/><path d="m200 327.984375h40v16h-40zm0 0"/><path d="m440 335.984375h16v16h-16zm0 0"/><path d="m416 335.984375h16v16h-16zm0 0"/><path d="m440 311.984375h16v16h-16zm0 0"/><path d="m128 255.984375h64v16h-64zm0 0"/><path d="m176 279.984375h32v16h-32zm0 0"/><path d="m200 303.984375h16v16h-16zm0 0"/><path d="m416 199.984375v-32h32v-16h-32v-40c0-4.417969-3.582031-8-8-8h-32v16h24v72h-24v16h32c4.417969 0 8-3.582031 8-8zm0 0"/><path d="m440 295.984375v-16h-32v-24c0-4.417969-3.582031-8-8-8h-32v16h24v40h-24v16h32c4.417969 0 8-3.582031 8-8v-16zm0 0"/></svg>