<svg height="480pt" viewBox="0 -12 480 480" width="480pt" xmlns="http://www.w3.org/2000/svg" fill="#5DEEFF"><path d="m456 0h-432c-13.253906 0-24 10.746094-24 24v288c0 13.253906 10.746094 24 24 24h191.3125l-7.3125 87.335938c-.1875 2.234374.574219 4.445312 2.09375 6.089843 1.523438 1.648438 3.664062 2.582031 5.90625 2.574219h48c2.242188.007812 4.382812-.925781 5.90625-2.574219 1.519531-1.644531 2.28125-3.855469 2.09375-6.089843l-7.3125-87.335938h191.3125c13.253906 0 24-10.746094 24-24v-288c0-13.253906-10.746094-24-24-24zm-432 16h432c4.417969 0 8 3.582031 8 8v248h-448v-248c0-4.417969 3.582031-8 8-8zm231.304688 400h-30.609376l6.664063-80h17.28125zm200.695312-96h-432c-4.417969 0-8-3.582031-8-8v-24h448v24c0 4.417969-3.582031 8-8 8zm0 0"/><path d="m248 296h-16c-4.417969 0-8 3.582031-8 8s3.582031 8 8 8h16c4.417969 0 8-3.582031 8-8s-3.582031-8-8-8zm0 0"/><path d="m312 96h112v16h-112zm0 0"/><path d="m272 96h32v16h-32zm0 0"/><path d="m248 96h16v16h-16zm0 0"/><path d="m304 120h120v16h-120zm0 0"/><path d="m248 120h48v16h-48zm0 0"/><path d="m248 144h48v16h-48zm0 0"/><path d="m304 144h32v16h-32zm0 0"/><path d="m344 144h80v16h-80zm0 0"/><path d="m248 168h176v16h-176zm0 0"/><path d="m112 192c44.183594 0 80-35.816406 80-80s-35.816406-80-80-80-80 35.816406-80 80c.046875 44.164062 35.835938 79.953125 80 80zm0-144c35.347656 0 64 28.652344 64 64s-28.652344 64-64 64-64-28.652344-64-64c.039062-35.328125 28.671875-63.960938 64-64zm0 0"/><path d="m80 160h64c4.417969 0 8-3.582031 8-8v-8c-.003906-13.300781-6.625-25.730469-17.65625-33.160156 9.316406-9.085938 12.203125-22.914063 7.296875-34.96875-4.90625-12.054688-16.625-19.9375-29.640625-19.9375s-24.734375 7.882812-29.640625 19.9375c-4.90625 12.054687-2.019531 25.882812 7.296875 34.96875-11.03125 7.429687-17.652344 19.859375-17.65625 33.160156v8c0 4.417969 3.582031 8 8 8zm16-72c0-8.835938 7.164062-16 16-16s16 7.164062 16 16-7.164062 16-16 16-16-7.164062-16-16zm16 32c13.253906 0 24 10.746094 24 24h-48c0-13.253906 10.746094-24 24-24zm0 0"/><path d="m32 208h64v16h-64zm0 0"/><path d="m104 208h32v16h-32zm0 0"/><path d="m144 208h48v16h-48zm0 0"/><path d="m72 248c0 4.417969-3.582031 8-8 8s-8-3.582031-8-8 3.582031-8 8-8 8 3.582031 8 8zm0 0"/><path d="m112 240c-4.417969 0-8 3.582031-8 8s3.582031 8 8 8h80c4.417969 0 8-3.582031 8-8s-3.582031-8-8-8zm0 0"/><path d="m40 248c0 4.417969-3.582031 8-8 8s-8-3.582031-8-8 3.582031-8 8-8 8 3.582031 8 8zm0 0"/><path d="m306.640625 436.398438v.082031c-14.480469 1.679687-30.402344 2.71875-47.199219 3.199219-10.722656.320312-21.121094.398437-31.609375.242187h-.152343c-4.347657.023437-7.886719 3.492187-8 7.839844-.015626 2.109375.789062 4.144531 2.242187 5.679687 1.484375 1.5 3.484375 2.386719 5.597656 2.480469 3.761719.078125 7.839844.078125 12.480469.078125 6.640625 0 13.28125-.078125 19.921875-.320312 17.269531-.480469 33.679687-1.601563 48.558594-3.359376 2.117187-.207031 4.050781-1.277343 5.351562-2.960937 1.34375-1.660156 1.949219-3.800781 1.679688-5.917969-.242188-2.113281-1.3125-4.039062-2.976563-5.363281-1.664062-1.320313-3.785156-1.921875-5.894531-1.679687zm0 0"/><path d="m149.601562 432.878906c-8.4375-1.433594-16.699218-3.769531-24.640624-6.957031-1.21875-.554687-2.394532-1.199219-3.519532-1.921875 7.917969-4.042969 16.421875-6.824219 25.199219-8.238281 4.328125-.886719 7.121094-5.113281 6.238281-9.441407-.882812-4.332031-5.109375-7.125-9.4375-6.242187-11.742187 1.710937-22.992187 5.855469-33.042968 12.160156-.160157.082031-.238282.242188-.320313.242188-3.683594 2.703125-5.925781 6.949219-6.078125 11.519531.71875 9.761719 8 13.28125 14.398438 16.480469 9.046874 3.757812 18.492187 6.46875 28.152343 8.078125.503907.097656 1.015625.152344 1.527344.160156 4.097656-.035156 7.503906-3.15625 7.894531-7.234375s-2.359375-7.789063-6.371094-8.605469zm0 0"/><path d="m361.832031 407.679688c-10.496093-4.324219-21.480469-7.359376-32.710937-9.039063-16.101563-2.710937-32.339844-4.527344-48.640625-5.441406-2.125-.128907-4.210938.589843-5.800781 2-1.59375 1.410156-2.554688 3.398437-2.679688 5.519531-.222656 4.402344 3.117188 8.171875 7.511719 8.480469 15.6875.875 31.3125 2.609375 46.808593 5.199219 9.890626 1.464843 19.578126 4.066406 28.871094 7.761718 4.003906 1.816406 8.722656.066406 10.570313-3.921875.875-1.914062.960937-4.097656.238281-6.078125-.730469-1.992187-2.234375-3.609375-4.167969-4.480468zm0 0"/><path d="m440 248h16v16h-16zm0 0"/><path d="m416 248h16v16h-16zm0 0"/><path d="m440 224h16v16h-16zm0 0"/><path d="m248 88h176c4.417969 0 8-3.582031 8-8v-48c0-4.417969-3.582031-8-8-8h-176c-4.417969 0-8 3.582031-8 8v48c0 4.417969 3.582031 8 8 8zm8-48h160v32h-160zm0 0"/><path d="m392 192h-136c-4.417969 0-8 3.582031-8 8v48c0 4.417969 3.582031 8 8 8h136c4.417969 0 8-3.582031 8-8v-48c0-4.417969-3.582031-8-8-8zm-8 48h-120v-32h120zm0 0"/><path d="m200 400c0 4.417969-3.582031 8-8 8s-8-3.582031-8-8 3.582031-8 8-8 8 3.582031 8 8zm0 0"/><path d="m192 448c0 4.417969-3.582031 8-8 8s-8-3.582031-8-8 3.582031-8 8-8 8 3.582031 8 8zm0 0"/><path d="m344 440c0 4.417969-3.582031 8-8 8s-8-3.582031-8-8 3.582031-8 8-8 8 3.582031 8 8zm0 0"/></svg>